<?xml version="1.0" standalone="no"?><svg xmlns="http://www.w3.org/2000/svg" viewBox="0 0 1440 320"><path fill="#1a1a1a" fill-opacity="1" d="M0,32L24,58.7C48,85,96,139,144,138.7C192,139,240,85,288,106.7C336,128,384,224,432,256C480,288,528,256,576,218.7C624,181,672,139,720,149.3C768,160,816,224,864,250.7C912,277,960,267,1008,229.3C1056,192,1104,128,1152,122.7C1200,117,1248,171,1296,202.7C1344,235,1392,245,1416,250.7L1440,256L1440,320L1416,320C1392,320,1344,320,1296,320C1248,320,1200,320,1152,320C1104,320,1056,320,1008,320C960,320,912,320,864,320C816,320,768,320,720,320C672,320,624,320,576,320C528,320,480,320,432,320C384,320,336,320,288,320C240,320,192,320,144,320C96,320,48,320,24,320L0,320Z"></path></svg>