<?xml version="1.0" standalone="no"?><svg xmlns="http://www.w3.org/2000/svg" viewBox="0 0 1440 320"><path fill="#0099ff" fill-opacity="1" d="M0,32L30,53.3C60,75,120,117,180,117.3C240,117,300,75,360,74.7C420,75,480,117,540,165.3C600,213,660,267,720,277.3C780,288,840,256,900,213.3C960,171,1020,117,1080,106.7C1140,96,1200,128,1260,122.7C1320,117,1380,75,1410,53.3L1440,32L1440,0L1410,0C1380,0,1320,0,1260,0C1200,0,1140,0,1080,0C1020,0,960,0,900,0C840,0,780,0,720,0C660,0,600,0,540,0C480,0,420,0,360,0C300,0,240,0,180,0C120,0,60,0,30,0L0,0Z"></path></svg>